<svg width="220" height="70" viewBox="0 0 220 70" fill="none" xmlns="http://www.w3.org/2000/svg">
<g filter="url(#filter0_d_3804_57)">
<rect x="5" width="210" height="60" rx="30" fill="white"/>
<path d="M29.68 36V24.8H34.048C35.0293 24.8 35.8667 24.9547 36.56 25.264C37.2533 25.5733 37.7867 26.0213 38.16 26.608C38.5333 27.1947 38.72 27.8933 38.72 28.704C38.72 29.5147 38.5333 30.2133 38.16 30.8C37.7867 31.376 37.2533 31.8187 36.56 32.128C35.8667 32.4373 35.0293 32.592 34.048 32.592H30.56L31.28 31.856V36H29.68ZM37.168 36L34.32 31.936H36.032L38.912 36H37.168ZM31.28 32.016L30.56 31.232H34C35.024 31.232 35.7973 31.0133 36.32 30.576C36.8533 30.128 37.12 29.504 37.12 28.704C37.12 27.904 36.8533 27.2853 36.32 26.848C35.7973 26.4107 35.024 26.192 34 26.192H30.56L31.28 25.392V32.016ZM44.937 36.096C44.0303 36.096 43.2303 35.9093 42.537 35.536C41.8543 35.1627 41.321 34.6507 40.937 34C40.5637 33.3493 40.377 32.6027 40.377 31.76C40.377 30.9173 40.5583 30.1707 40.921 29.52C41.2943 28.8693 41.801 28.3627 42.441 28C43.0917 27.6267 43.8223 27.44 44.633 27.44C45.4543 27.44 46.1797 27.6213 46.809 27.984C47.4383 28.3467 47.929 28.8587 48.281 29.52C48.6437 30.1707 48.825 30.9333 48.825 31.808C48.825 31.872 48.8197 31.9467 48.809 32.032C48.809 32.1173 48.8037 32.1973 48.793 32.272H41.577V31.168H47.993L47.369 31.552C47.3797 31.008 47.2677 30.5227 47.033 30.096C46.7983 29.6693 46.473 29.3387 46.057 29.104C45.6517 28.8587 45.177 28.736 44.633 28.736C44.0997 28.736 43.625 28.8587 43.209 29.104C42.793 29.3387 42.4677 29.6747 42.233 30.112C41.9983 30.5387 41.881 31.0293 41.881 31.584V31.84C41.881 32.4053 42.009 32.912 42.265 33.36C42.5317 33.7973 42.8997 34.1387 43.369 34.384C43.8383 34.6293 44.377 34.752 44.985 34.752C45.4863 34.752 45.9397 34.6667 46.345 34.496C46.761 34.3253 47.1237 34.0693 47.433 33.728L48.281 34.72C47.897 35.168 47.417 35.5093 46.841 35.744C46.2757 35.9787 45.641 36.096 44.937 36.096ZM54.5419 36.096C53.7205 36.096 52.9845 35.9147 52.3339 35.552C51.6939 35.1893 51.1872 34.6827 50.8139 34.032C50.4405 33.3813 50.2539 32.624 50.2539 31.76C50.2539 30.896 50.4405 30.144 50.8139 29.504C51.1872 28.8533 51.6939 28.3467 52.3339 27.984C52.9845 27.6213 53.7205 27.44 54.5419 27.44C55.2779 27.44 55.9339 27.6 56.5099 27.92C57.0859 28.24 57.5392 28.72 57.8699 29.36C58.2112 30 58.3819 30.8 58.3819 31.76C58.3819 32.72 58.2059 33.52 57.8539 34.16C57.5125 34.8 57.0539 35.2853 56.4779 35.616C55.9019 35.936 55.2565 36.096 54.5419 36.096ZM54.6699 34.752C55.2032 34.752 55.6832 34.6293 56.1099 34.384C56.5472 34.1387 56.8885 33.792 57.1339 33.344C57.3899 32.8853 57.5179 32.3573 57.5179 31.76C57.5179 31.152 57.3899 30.6293 57.1339 30.192C56.8885 29.744 56.5472 29.3973 56.1099 29.152C55.6832 28.9067 55.2032 28.784 54.6699 28.784C54.1259 28.784 53.6405 28.9067 53.2139 29.152C52.7872 29.3973 52.4459 29.744 52.1899 30.192C51.9339 30.6293 51.8059 31.152 51.8059 31.76C51.8059 32.3573 51.9339 32.8853 52.1899 33.344C52.4459 33.792 52.7872 34.1387 53.2139 34.384C53.6405 34.6293 54.1259 34.752 54.6699 34.752ZM57.5019 39.104V33.744L57.6619 31.776L57.5659 29.808V27.52H59.0379V39.104H57.5019ZM65.5921 36.096C64.8668 36.096 64.2268 35.9627 63.6721 35.696C63.1281 35.4293 62.7015 35.024 62.3921 34.48C62.0935 33.9253 61.9441 33.232 61.9441 32.4V27.52H63.4801V32.224C63.4801 33.056 63.6775 33.68 64.0721 34.096C64.4775 34.512 65.0428 34.72 65.7681 34.72C66.3015 34.72 66.7655 34.6133 67.1601 34.4C67.5548 34.176 67.8588 33.856 68.0721 33.44C68.2855 33.0133 68.3921 32.5013 68.3921 31.904V27.52H69.9281V36H68.4721V33.712L68.7121 34.32C68.4348 34.8853 68.0188 35.3227 67.4641 35.632C66.9095 35.9413 66.2855 36.096 65.5921 36.096ZM76.7083 36.096C75.8016 36.096 75.0016 35.9093 74.3082 35.536C73.6256 35.1627 73.0922 34.6507 72.7082 34C72.3349 33.3493 72.1482 32.6027 72.1482 31.76C72.1482 30.9173 72.3296 30.1707 72.6922 29.52C73.0656 28.8693 73.5722 28.3627 74.2122 28C74.8629 27.6267 75.5936 27.44 76.4043 27.44C77.2256 27.44 77.9509 27.6213 78.5803 27.984C79.2096 28.3467 79.7002 28.8587 80.0522 29.52C80.4149 30.1707 80.5963 30.9333 80.5963 31.808C80.5963 31.872 80.5909 31.9467 80.5802 32.032C80.5802 32.1173 80.5749 32.1973 80.5642 32.272H73.3482V31.168H79.7642L79.1403 31.552C79.1509 31.008 79.0389 30.5227 78.8043 30.096C78.5696 29.6693 78.2442 29.3387 77.8282 29.104C77.4229 28.8587 76.9483 28.736 76.4043 28.736C75.8709 28.736 75.3962 28.8587 74.9802 29.104C74.5642 29.3387 74.2389 29.6747 74.0042 30.112C73.7696 30.5387 73.6522 31.0293 73.6522 31.584V31.84C73.6522 32.4053 73.7802 32.912 74.0362 33.36C74.3029 33.7973 74.6709 34.1387 75.1402 34.384C75.6096 34.6293 76.1482 34.752 76.7562 34.752C77.2576 34.752 77.7109 34.6667 78.1163 34.496C78.5323 34.3253 78.8949 34.0693 79.2042 33.728L80.0522 34.72C79.6682 35.168 79.1882 35.5093 78.6122 35.744C78.0469 35.9787 77.4122 36.096 76.7083 36.096ZM85.2411 36.096C84.5371 36.096 83.8651 36 83.2251 35.808C82.5958 35.616 82.0998 35.3813 81.7371 35.104L82.3771 33.888C82.7398 34.1333 83.1878 34.3413 83.7211 34.512C84.2545 34.6827 84.7985 34.768 85.3531 34.768C86.0678 34.768 86.5798 34.6667 86.8891 34.464C87.2091 34.2613 87.3691 33.9787 87.3691 33.616C87.3691 33.3493 87.2731 33.1413 87.0811 32.992C86.8891 32.8427 86.6331 32.7307 86.3131 32.656C86.0038 32.5813 85.6571 32.5173 85.2731 32.464C84.8891 32.4 84.5051 32.3253 84.1211 32.24C83.7371 32.144 83.3851 32.016 83.0651 31.856C82.7451 31.6853 82.4891 31.456 82.2971 31.168C82.1051 30.8693 82.0091 30.4747 82.0091 29.984C82.0091 29.472 82.1531 29.024 82.4411 28.64C82.7291 28.256 83.1345 27.9627 83.6571 27.76C84.1905 27.5467 84.8198 27.44 85.5451 27.44C86.0998 27.44 86.6598 27.5093 87.2251 27.648C87.8011 27.776 88.2705 27.9627 88.6331 28.208L87.9771 29.424C87.5931 29.168 87.1931 28.992 86.7771 28.896C86.3611 28.8 85.9451 28.752 85.5291 28.752C84.8571 28.752 84.3558 28.864 84.0251 29.088C83.6945 29.3013 83.5291 29.5787 83.5291 29.92C83.5291 30.208 83.6251 30.432 83.8171 30.592C84.0198 30.7413 84.2758 30.8587 84.5851 30.944C84.9051 31.0293 85.2571 31.104 85.6411 31.168C86.0251 31.2213 86.4091 31.296 86.7931 31.392C87.1771 31.4773 87.5238 31.6 87.8331 31.76C88.1531 31.92 88.4091 32.144 88.6011 32.432C88.8038 32.72 88.9051 33.104 88.9051 33.584C88.9051 34.096 88.7558 34.5387 88.4571 34.912C88.1585 35.2853 87.7371 35.5787 87.1931 35.792C86.6491 35.9947 85.9985 36.096 85.2411 36.096ZM93.8167 36.096C92.9634 36.096 92.3021 35.8667 91.8327 35.408C91.3634 34.9493 91.1287 34.2933 91.1287 33.44V25.664H92.6647V33.376C92.6647 33.8347 92.7767 34.1867 93.0007 34.432C93.2354 34.6773 93.5661 34.8 93.9927 34.8C94.4727 34.8 94.8727 34.6667 95.1927 34.4L95.6727 35.504C95.4381 35.7067 95.1554 35.856 94.8247 35.952C94.5047 36.048 94.1687 36.096 93.8167 36.096ZM89.6887 28.784V27.52H95.0967V28.784H89.6887ZM102.211 36V24.8H106.931C108.125 24.8 109.176 25.0347 110.083 25.504C111 25.9733 111.709 26.6293 112.211 27.472C112.723 28.3147 112.979 29.2907 112.979 30.4C112.979 31.5093 112.723 32.4853 112.211 33.328C111.709 34.1707 111 34.8267 110.083 35.296C109.176 35.7653 108.125 36 106.931 36H102.211ZM103.811 34.608H106.835C107.763 34.608 108.563 34.432 109.235 34.08C109.917 33.728 110.445 33.2373 110.819 32.608C111.192 31.968 111.379 31.232 111.379 30.4C111.379 29.5573 111.192 28.8213 110.819 28.192C110.445 27.5627 109.917 27.072 109.235 26.72C108.563 26.368 107.763 26.192 106.835 26.192H103.811V34.608ZM119.061 36.096C118.155 36.096 117.355 35.9093 116.661 35.536C115.979 35.1627 115.445 34.6507 115.061 34C114.688 33.3493 114.501 32.6027 114.501 31.76C114.501 30.9173 114.683 30.1707 115.045 29.52C115.419 28.8693 115.925 28.3627 116.565 28C117.216 27.6267 117.947 27.44 118.757 27.44C119.579 27.44 120.304 27.6213 120.933 27.984C121.563 28.3467 122.053 28.8587 122.405 29.52C122.768 30.1707 122.949 30.9333 122.949 31.808C122.949 31.872 122.944 31.9467 122.933 32.032C122.933 32.1173 122.928 32.1973 122.917 32.272H115.701V31.168H122.117L121.493 31.552C121.504 31.008 121.392 30.5227 121.157 30.096C120.923 29.6693 120.597 29.3387 120.181 29.104C119.776 28.8587 119.301 28.736 118.757 28.736C118.224 28.736 117.749 28.8587 117.333 29.104C116.917 29.3387 116.592 29.6747 116.357 30.112C116.123 30.5387 116.005 31.0293 116.005 31.584V31.84C116.005 32.4053 116.133 32.912 116.389 33.36C116.656 33.7973 117.024 34.1387 117.493 34.384C117.963 34.6293 118.501 34.752 119.109 34.752C119.611 34.752 120.064 34.6667 120.469 34.496C120.885 34.3253 121.248 34.0693 121.557 33.728L122.405 34.72C122.021 35.168 121.541 35.5093 120.965 35.744C120.4 35.9787 119.765 36.096 119.061 36.096ZM135.77 27.44C136.453 27.44 137.056 27.5733 137.578 27.84C138.101 28.1067 138.506 28.512 138.794 29.056C139.093 29.6 139.242 30.288 139.242 31.12V36H137.706V31.296C137.706 30.4747 137.514 29.856 137.13 29.44C136.746 29.024 136.208 28.816 135.514 28.816C135.002 28.816 134.554 28.9227 134.17 29.136C133.786 29.3493 133.488 29.664 133.274 30.08C133.072 30.496 132.97 31.0133 132.97 31.632V36H131.434V31.296C131.434 30.4747 131.242 29.856 130.858 29.44C130.485 29.024 129.946 28.816 129.242 28.816C128.741 28.816 128.298 28.9227 127.914 29.136C127.53 29.3493 127.232 29.664 127.018 30.08C126.805 30.496 126.698 31.0133 126.698 31.632V36H125.162V27.52H126.634V29.776L126.394 29.2C126.661 28.6453 127.072 28.2133 127.626 27.904C128.181 27.5947 128.826 27.44 129.562 27.44C130.373 27.44 131.072 27.6427 131.658 28.048C132.245 28.4427 132.629 29.0453 132.81 29.856L132.186 29.6C132.442 28.9493 132.89 28.4267 133.53 28.032C134.17 27.6373 134.917 27.44 135.77 27.44ZM145.78 36.096C144.927 36.096 144.17 35.9093 143.508 35.536C142.847 35.1627 142.324 34.6507 141.94 34C141.556 33.3387 141.364 32.592 141.364 31.76C141.364 30.9173 141.556 30.1707 141.94 29.52C142.324 28.8693 142.847 28.3627 143.508 28C144.17 27.6267 144.927 27.44 145.78 27.44C146.623 27.44 147.375 27.6267 148.036 28C148.708 28.3627 149.231 28.8693 149.604 29.52C149.988 30.16 150.18 30.9067 150.18 31.76C150.18 32.6027 149.988 33.3493 149.604 34C149.231 34.6507 148.708 35.1627 148.036 35.536C147.375 35.9093 146.623 36.096 145.78 36.096ZM145.78 34.752C146.324 34.752 146.81 34.6293 147.236 34.384C147.674 34.1387 148.015 33.792 148.26 33.344C148.506 32.8853 148.628 32.3573 148.628 31.76C148.628 31.152 148.506 30.6293 148.26 30.192C148.015 29.744 147.674 29.3973 147.236 29.152C146.81 28.9067 146.324 28.784 145.78 28.784C145.236 28.784 144.751 28.9067 144.324 29.152C143.898 29.3973 143.556 29.744 143.3 30.192C143.044 30.6293 142.916 31.152 142.916 31.76C142.916 32.3573 143.044 32.8853 143.3 33.344C143.556 33.792 143.898 34.1387 144.324 34.384C144.751 34.6293 145.236 34.752 145.78 34.752Z" fill="#212353"/>
<path d="M186 37L192 30L186 23" stroke="#9C69E2" stroke-width="2" stroke-linecap="round" stroke-linejoin="round"/>
<path d="M192 30H172" stroke="#9C69E2" stroke-width="2" stroke-linecap="round" stroke-linejoin="round"/>
<rect x="5.5" y="0.5" width="209" height="59" rx="29.5" stroke="#9C69E2"/>
</g>
<defs>
<filter id="filter0_d_3804_57" x="0" y="0" width="220" height="70" filterUnits="userSpaceOnUse" color-interpolation-filters="sRGB">
<feFlood flood-opacity="0" result="BackgroundImageFix"/>
<feColorMatrix in="SourceAlpha" type="matrix" values="0 0 0 0 0 0 0 0 0 0 0 0 0 0 0 0 0 0 127 0" result="hardAlpha"/>
<feOffset dy="5"/>
<feGaussianBlur stdDeviation="2.5"/>
<feColorMatrix type="matrix" values="0 0 0 0 0.294064 0 0 0 0 0.364384 0 0 0 0 0.405936 0 0 0 0.1 0"/>
<feBlend mode="normal" in2="BackgroundImageFix" result="effect1_dropShadow_3804_57"/>
<feBlend mode="normal" in="SourceGraphic" in2="effect1_dropShadow_3804_57" result="shape"/>
</filter>
</defs>
</svg>
